<svg width="13" height="9" viewBox="0 0 13 9" fill="none" xmlns="http://www.w3.org/2000/svg">
<path fill-rule="evenodd" clip-rule="evenodd" d="M0 4.50063C0 4.36802 0.0460936 4.24085 0.128141 4.14708C0.210188 4.05331 0.321468 4.00063 0.4375 4.00063H10.7564L8.00275 0.854632C7.9206 0.760745 7.87445 0.633407 7.87445 0.500632C7.87445 0.367856 7.9206 0.240518 8.00275 0.146631C8.0849 0.0527448 8.19632 3.1283e-09 8.3125 0C8.42868 -3.1283e-09 8.5401 0.0527449 8.62225 0.146631L12.1222 4.14663C12.163 4.19308 12.1953 4.24825 12.2174 4.309C12.2394 4.36974 12.2508 4.43486 12.2508 4.50063C12.2508 4.5664 12.2394 4.63152 12.2174 4.69226C12.1953 4.75301 12.163 4.80819 12.1222 4.85463L8.62225 8.85463C8.5401 8.94852 8.42868 9.00126 8.3125 9.00126C8.19632 9.00126 8.0849 8.94852 8.00275 8.85463C7.9206 8.76075 7.87445 8.63341 7.87445 8.50063C7.87445 8.36786 7.9206 8.24052 8.00275 8.14663L10.7564 5.00063H0.4375C0.321468 5.00063 0.210188 4.94795 0.128141 4.85419C0.0460936 4.76042 0 4.63324 0 4.50063Z" fill="black"/>
</svg>
