<svg width="20" height="20" viewBox="0 0 20 20" fill="none" xmlns="http://www.w3.org/2000/svg">
<path d="M2.80612 3.01911C3.73031 2.07119 4.83352 1.31622 6.05176 0.797994C7.26999 0.279764 8.57901 0.00858946 9.90286 0.000200771C11.2267 -0.00818792 12.5391 0.246376 13.7638 0.749127C14.9885 1.25188 16.1012 1.99281 17.0373 2.92893C17.9734 3.86506 18.7144 4.97775 19.2171 6.20246C19.7199 7.42716 19.9744 8.73951 19.966 10.0634C19.9576 11.3872 19.6865 12.6962 19.1682 13.9145C18.65 15.1327 17.895 16.2359 16.9471 17.1601C15.0611 18.9817 12.5351 19.9896 9.91311 19.9668C7.29114 19.9441 4.78301 18.8924 2.92893 17.0383C1.07485 15.1842 0.0231622 12.6761 0.000378026 10.0541C-0.0224062 7.43215 0.985538 4.90613 2.80712 3.02011M10.8781 7.09111C10.8781 6.82589 10.7728 6.57154 10.5852 6.384C10.3977 6.19647 10.1433 6.09111 9.87812 6.09111C9.6129 6.09111 9.35855 6.19647 9.17101 6.384C8.98347 6.57154 8.87812 6.82589 8.87812 7.09111V9.09111H6.87812C6.6129 9.09111 6.35855 9.19647 6.17101 9.384C5.98348 9.57154 5.87812 9.82589 5.87812 10.0911C5.87812 10.3563 5.98348 10.6107 6.17101 10.7982C6.35855 10.9858 6.6129 11.0911 6.87812 11.0911H8.87812V13.0911C8.87812 13.3563 8.98347 13.6107 9.17101 13.7982C9.35855 13.9858 9.6129 14.0911 9.87812 14.0911C10.1433 14.0911 10.3977 13.9858 10.5852 13.7982C10.7728 13.6107 10.8781 13.3563 10.8781 13.0911V11.0911H12.8781C13.1433 11.0911 13.3977 10.9858 13.5852 10.7982C13.7728 10.6107 13.8781 10.3563 13.8781 10.0911C13.8781 9.82589 13.7728 9.57154 13.5852 9.384C13.3977 9.19647 13.1433 9.09111 12.8781 9.09111H10.8781V7.09111Z" fill="white"/>
</svg>
