<svg width="24" height="24" viewBox="0 0 24 24" fill="none" xmlns="http://www.w3.org/2000/svg">
<g clip-path="url(#clip0_14_112)">
<path d="M14.6693 21.6226C15.0588 21.2232 15.1629 20.7137 15.1368 20.141L16.9073 20.8286C16.8151 21.901 16.2125 22.8115 15.4159 23.3218C14.4535 23.9383 13.3723 24.0262 12.3408 23.6239L4.34206 20.5054C2.35654 19.7314 0.97006 17.7958 0.96598 15.6497L0.95014 7.37953C0.94798 6.27505 1.53022 5.28337 2.33494 4.70641C3.30574 4.01041 4.47118 3.90505 5.5375 4.31833L7.06966 4.91209L7.08118 3.41617C7.08958 2.34769 7.63462 1.36057 8.4415 0.786246C9.34918 0.139926 10.4877 -0.0655136 11.5265 0.338886L19.6946 3.51913C21.7241 4.30921 23.0462 6.30625 23.0469 8.47777L23.0498 16.6778C23.0503 17.76 22.4573 18.7382 21.6667 19.2991C20.7324 19.9618 19.5974 20.1228 18.551 19.717L10.5554 16.6174C8.87734 15.9667 7.04926 16.2502 5.5831 17.2466C5.24014 17.4797 5.01478 17.7862 5.03782 18.2002C5.05894 18.5832 5.28262 18.9521 5.68966 19.1105L12.9441 21.931C13.5511 22.1669 14.1957 22.1081 14.6697 21.6223L14.6693 21.6226ZM18.4272 6.75721C18.8066 6.50137 19.0051 6.17953 18.9602 5.75281C18.9271 5.43721 18.7301 5.06233 18.3614 4.91905L10.9274 2.03377C10.4273 1.83961 9.87142 1.96873 9.47134 2.25769C9.08638 2.53585 8.86774 3.01081 8.8687 3.53233L8.87254 5.61529L13.6773 7.46113C15.2772 8.07577 17.0215 7.70497 18.4274 6.75697L18.4272 6.75721ZM8.88094 10.4988C8.91334 12.6821 10.332 14.5939 12.3365 15.3739L15.1303 16.4611L15.1241 13.6138C15.119 11.3194 13.6152 9.37297 11.4936 8.55649L4.67758 5.93305C4.19374 5.74681 3.6163 5.97121 3.2767 6.25129C2.91526 6.54937 2.7451 6.97345 2.7451 7.48657L2.74462 15.0041C2.74462 15.4709 2.96206 15.8004 3.32374 15.9888C3.71998 16.1952 4.07014 16.0829 4.44574 15.8542C6.01942 14.8956 7.05742 13.2413 7.06894 11.3671L7.08598 8.59993L8.86294 9.28009L8.88094 10.4988ZM19.3217 18.0605C20.1753 18.3787 21.2297 17.6983 21.2321 16.7621L21.2517 8.88073C21.2527 8.47009 20.9616 8.17321 20.6791 8.02369C20.2934 7.81969 19.9526 7.91929 19.5969 8.13193C18.0002 9.08713 16.9361 10.746 16.9341 12.6437L16.9298 17.1691L19.3217 18.0602V18.0605Z" fill="#E5E5E5"/>
</g>
<defs>
<clipPath id="clip0_14_112">
<rect width="24" height="24" fill="white"/>
</clipPath>
</defs>
</svg>
